<?xml version="1.0" standalone="no"?><!DOCTYPE svg PUBLIC "-//W3C//DTD SVG 1.1//EN" "http://www.w3.org/Graphics/SVG/1.1/DTD/svg11.dtd"><svg t="1722251749211" class="icon" viewBox="0 0 1026 1024" version="1.1" xmlns="http://www.w3.org/2000/svg" p-id="18808" xmlns:xlink="http://www.w3.org/1999/xlink" width="48.09375" height="48"><path d="M603.52 512l274.56-274.56a64 64 0 0 0 16.64-64 64 64 0 0 0-45.44-45.44 64 64 0 0 0-64 16.64L512 421.76l-273.28-275.2a64 64 0 0 0-90.88 90.88L423.04 512l-275.2 274.56a64 64 0 0 0 0 90.24A64 64 0 0 0 192 896a64 64 0 0 0 45.44-19.2L512 602.24l275.2 274.56a64 64 0 0 0 44.8 19.2 64 64 0 0 0 45.44-109.44L603.52 512z" fill="#445365" p-id="18809"></path></svg>